# xmcd CD database file
#
# Track frame offsets:
#	150
#	20100
#	40687
#	62710
#	87275
#	113405
#	138352
#	162960
#	180207
#	201315
#	220550
#	245897
#	267785
#	290335
#
# Disc length: 4288 seconds
#
# Revision: 2
# Processed by: cddbd v1.5PL3 Copyright (c) Steve Scherf et al.
# Submitted via: CDex 1.50
#
DISCID=c010be0e
DTITLE=Folder - 7 SOUL
DYEAR=2000
DGENRE=Pop
TTITLE0=Reality
TTITLE1=Lady Butterfly
TTITLE2=Everlasting Love -Japanese Version-
TTITLE3=太陽だった
TTITLE4=サヨナラガイエナイ
TTITLE5=YOU MAKE ME FEEL BRAND NEW
TTITLE6=BAD ROUTING
TTITLE7=I WANT YOU BACK -English Version-
TTITLE8=Glory Glory -7 SOUL Version-
TTITLE9=Crazy for you
TTITLE10=BOHEMIAN RHAPSODY
TTITLE11=I WANT YOU BACK
TTITLE12=HELLOW AGAIN -SOUL REMIX-
TTITLE13=Everlasting Love -English Version P.K.G MIX-
EXTD=YEAR: 2000
EXTT0=
EXTT1=
EXTT2=
EXTT3=
EXTT4=
EXTT5=
EXTT6=
EXTT7=
EXTT8=
EXTT9=
EXTT10=
EXTT11=
EXTT12=
EXTT13=
PLAYORDER=
